<svg id="Layer_1" data-name="Layer 1" xmlns="http://www.w3.org/2000/svg" xmlns:xlink="http://www.w3.org/1999/xlink" viewBox="0 0 904.42 1266.38"><defs><style>.cls-1,.cls-2,.cls-6{fill:none;}.cls-2{stroke:#ed1c24;stroke-width:0px;}.cls-2,.cls-6{stroke-miterlimit:10;}.cls-3{clip-path:url(#clip-path);}.cls-4{clip-path:url(#clip-path-2);}.cls-5{fill:#f05323;}.cls-6{stroke:#f4f9ec;stroke-width:0.79px;}</style><clipPath id="clip-path" transform="translate(-132.66 -14.81)"><rect class="cls-1" x="132.66" y="14.81" width="904.42" height="1266.38"/></clipPath><clipPath id="clip-path-2" transform="translate(-132.66 -14.81)"><rect class="cls-1" x="132.66" y="14.81" width="904.42" height="1266.38"/></clipPath></defs><path class="cls-2" d="M908.56,736c1.15-.78,1.84-1.3,1.84-1.3A3.12,3.12,0,0,0,908.56,736Z" transform="translate(-132.66 -14.81)"/><g id="Vector_Smart_Object" data-name="Vector Smart Object"><g class="cls-3"><g class="cls-4"><path class="cls-5" d="M534.84,15.28l-342.53,52c-29.46,4.47-71.51,869.91-55.87,973s104.28,240.4,104.28,240.4,270-157.75,354.67-170.6,141.2,61.48,202.24-8.07,239-262.32,239-262.32L989.18,526.61s-222,225.82-489,228.65c-69.29.74,34.71-740,34.71-740" transform="translate(-132.66 -14.81)"/><path class="cls-6" d="M534.84,15.28l-342.53,52c-29.46,4.47-71.51,869.91-55.87,973s104.28,240.4,104.28,240.4,270-157.75,354.67-170.6,141.2,61.48,202.24-8.07,239-262.32,239-262.32L989.18,526.61s-222,225.82-489,228.65C430.84,756,534.84,15.28,534.84,15.28Z" transform="translate(-132.66 -14.81)"/></g></g></g></svg>