<svg id="Layer_1" data-name="Layer 1" xmlns="http://www.w3.org/2000/svg" xmlns:xlink="http://www.w3.org/1999/xlink" viewBox="0 0 259.04 124.21"><defs><style>.cls-1,.cls-7{fill:none;}.cls-2{clip-path:url(#clip-path);}.cls-3{clip-path:url(#clip-path-3);}.cls-4{opacity:0.84;}.cls-5{clip-path:url(#clip-path-4);}.cls-6{fill:#449dd6;}.cls-7{stroke:#020202;stroke-miterlimit:10;stroke-width:5.26px;}.cls-8{fill:#020202;}.cls-9{fill:#fdfefe;}.cls-10{clip-path:url(#clip-path-5);}</style><clipPath id="clip-path" transform="translate(-18.95 -10.53)"><rect class="cls-1" x="18.95" y="10.53" width="259.04" height="124.21"/></clipPath><clipPath id="clip-path-3" transform="translate(-18.95 -10.53)"><rect class="cls-1" x="18.95" y="10.53" width="259.04" height="124.21"/></clipPath><clipPath id="clip-path-4" transform="translate(-18.95 -10.53)"><rect class="cls-1" x="18.95" y="10.53" width="95.39" height="124.21"/></clipPath><clipPath id="clip-path-5" transform="translate(-18.95 -10.53)"><rect class="cls-1" x="190.24" y="13.26" width="87.74" height="118.75"/></clipPath></defs><g id="Artwork_249" data-name="Artwork 249"><g class="cls-2"><g class="cls-2"><g class="cls-3"><g class="cls-4"><g class="cls-5"><path class="cls-6" d="M41.62,36.51C51,22.05,69.55,8.22,91.45,14.87c14.13,4.3,14.67,15.84,17.33,22.78,4.17,10.9,4,39.07-1,50.24C101.61,101.61,90,116.37,76,124.42c-3.38,1.94-20.54,11.26-35.16,6.2-15.93-5.52-17.95-24.37-19.14-35.46-.7-6.62,2.48-31.64,20-58.65" transform="translate(-18.95 -10.53)"/><path class="cls-7" d="M41.62,36.51C51,22.05,69.55,8.22,91.45,14.87c14.13,4.3,14.67,15.84,17.33,22.78,4.17,10.9,4,39.07-1,50.24C101.61,101.61,90,116.37,76,124.42c-3.38,1.94-20.54,11.26-35.16,6.2-15.93-5.52-17.95-24.37-19.14-35.46C21,88.54,24.14,63.52,41.62,36.51Z" transform="translate(-18.95 -10.53)"/></g></g><path class="cls-8" d="M30.22,59.82c5.28-9.06,13.27-23.91,35.56-24.4,14.8-.31,13,30.78,13,30.78L65.06,69.47,75.52,86s2.33,52.31-31.69,47.82c-27.87-3.68-21.12-61.08-13.61-74" transform="translate(-18.95 -10.53)"/><path class="cls-9" d="M60.88,71.87c-2.43,8.74-7,13.73-10.13,11.18S47,71.28,49.38,62.58s7-13.73,10.13-11.14,3.78,11.73,1.37,20.43" transform="translate(-18.95 -10.53)"/><g class="cls-4"><g class="cls-10"><path class="cls-6" d="M217.42,27.45c10.46-8.94,30.16-16.32,44.15-7.8C268.7,24,273.62,35,274.63,42.82c2.19,17-.72,42.45-6.43,53.19-7,13.2-17.4,23.65-30.75,29.48-3.21,1.4-19.45,8-31.76,0C192.27,116.83,192.7,96.79,193,85c.15-7,.79-37.32,24.47-57.54" transform="translate(-18.95 -10.53)"/><path class="cls-7" d="M217.42,27.45c10.46-8.94,30.16-16.32,44.15-7.8C268.7,24,273.62,35,274.63,42.82c2.19,17-.72,42.45-6.43,53.19-7,13.2-17.4,23.65-30.75,29.48-3.21,1.4-19.45,8-31.76,0C192.27,116.83,192.7,96.79,193,85,193.1,78,193.74,47.67,217.42,27.45Z" transform="translate(-18.95 -10.53)"/></g></g><path class="cls-8" d="M200,50.41C210.72,29.35,228.18,27,236.81,31.69c9.13,4.92,8.52,33.23,8.52,33.23l-28.4,7.87,24,7.83s5.64,47.55-29.87,49.43c-24.36,1.28-20-62.14-11.09-79.64" transform="translate(-18.95 -10.53)"/><path class="cls-9" d="M213.5,77.27C211.07,86,206.55,91,203.37,88.44S199.6,76.68,202,68s7-13.72,10.13-11.13,3.78,11.73,1.37,20.43" transform="translate(-18.95 -10.53)"/></g></g></g></g></svg>