<svg id="Layer_1" data-name="Layer 1" xmlns="http://www.w3.org/2000/svg" xmlns:xlink="http://www.w3.org/1999/xlink" viewBox="0 0 150.56 136.96"><defs><style>.cls-1{fill:url(#linear-gradient);}</style><linearGradient id="linear-gradient" x1="12.52" y1="91.31" x2="163.08" y2="91.31" gradientUnits="userSpaceOnUse"><stop offset="0.49" stop-color="#fff"/><stop offset="1"/></linearGradient></defs><path class="cls-1" d="M52.34,22.83,35.91,43.16S65,75.14,64.05,75.37s-51.53-.66-51.53-.66L32.71,97.38l37.94-3.06S52,101.22,37.28,107.16l-20.7,29,54.77-12c-3.49,8.25-13.44,35.61-13.44,35.61h51.25L101.06,118s60.95,15.58,62,17.2c0,0-33.1-19.77-51.55-35.66l51.55-21.45L109.66,76l-6.13-.18s25.33-16.88,32.36-21.22l-3.74-16-3.86-12.41C110.51,41.58,85.83,62.75,85.83,62.75Z" transform="translate(-12.52 -22.83)"/></svg>