<svg id="Layer_1" data-name="Layer 1" xmlns="http://www.w3.org/2000/svg" viewBox="0 0 1063.31 1098.59"><defs><style>.cls-1{fill:none;stroke:#ed1c24;stroke-miterlimit:10;stroke-width:0px;}.cls-2{fill:#f04a4a;}</style></defs><path class="cls-1" d="M695.83,454.14v3.47C695.88,456.08,695.89,454.89,695.83,454.14Z" transform="translate(-38.96 -98.71)"/><path class="cls-1" d="M908.56,736c1.15-.78,1.84-1.3,1.84-1.3A3.12,3.12,0,0,0,908.56,736Z" transform="translate(-38.96 -98.71)"/><path class="cls-1" d="M695.83,542.05V457.61C695.33,471.84,690.67,516.91,695.83,542.05Z" transform="translate(-38.96 -98.71)"/><path class="cls-2" d="M1095,461c-16.38-10.67-64.16-45.27-83.27-24.19S973.5,495.73,972.14,529c0,0-46.42-66.56-84.64-6,0,0,.43,34.94-24.15,36.45-6.81.42-10.77-6.67-13-17.36-5.16-25.15-.5-70.21,0-84.44v-3.47h0c-.93-11.56-24.31-6.55-24.31-14.25s1.36-30.53-24.57-30.45-95.84-25-95.84-25c0-33.05-4.07-53.88-31.52-53.88L559.59,318.85c-14.41-11.66-73-8.53-78-8.43a15.08,15.08,0,0,1-7.66-2.42c-14.18-8.23-31.13-34.65-36.87-34.63-6.82,0-13.65-49.93-13.65-49.93s10.92-79.3-24.57-81.23-112.18-10.63-118.2-10.81-32.89-61.5-104.77-15.72c0,0-10.65,28.82,0,81.62S122.37,348.84,122.3,349h0c-.07.13,0,.22,0,.24C122.3,349.71,36.87,481,39,507c4.33,52.86,1,142.28,62.35,189.17,0,0,16.34,88.57,40.28,128.34s3.11,137.24-11.89,153-27.32,59-15.56,70.34,53.32,2.06,43.62,24.23-26.32,59.75-9.73,60,54.31-13.06,50.07-1.17,33.61,16.45,50.35-3.18c0,0,88.56-9.84,99.39-4.27s42.38,17.07,47.47,17.53,3,11.93,16.28,14.65,14.25,15.6,18.32,15.36,36.63-10.72,36.63-4.35,91.6-7.49,91.6,0,13.23,18.1,44.77,19,67.17,1.65,86.51,10.3,60-28,71.24-30.56,32.56-18.88,39.69-14.65,81.41-38.15,100.75-37.82,97.69,4.84,107.87,7.1,71-88.36,71-92.4-46.41-43.33-51.87-47.89-20.47,13.3-20.47,13.3-1.37-57.19-2.73-45.09-31.4,10.59-31.4,10.59-15-19-12.28-27.66,30-22.32,28.66-28.34-9.55-21.11-9.55-21.11,23.2,11.76,32.76,5.86,1.36-23.21,6.82-51.61,17.75-58.64,4.1-64.69,42.31,12.1,49.14,0c6.19-11-13.43-29.4-10-35-5.91,4-24.1,14.92-24.1-2.81,0,0,25.94-16.64,19.11-48.41,0,0-30,0-35.49,4.54S1009,671.18,1009,671.18s-36.85,1.51-32.76,36.3-25.93-7.56-25.93-7.56l1.36-43.43s66.89,17.72,80.54,13.18S1095,615.22,1095,615.22,1111.37,471.69,1095,461Z" transform="translate(-38.96 -98.71)"/></svg>