<svg id="Layer_1" data-name="Layer 1" xmlns="http://www.w3.org/2000/svg" viewBox="0 0 126.12 10.81"><defs><style>.cls-1{fill:#e6e7e8;}</style></defs><path class="cls-1" d="M8.3,18.64a4,4,0,0,0,.83.87,1.9,1.9,0,0,0,1,.44,3.08,3.08,0,0,0-.88,0c-.11,0,.09.12.58.25l3.67.87a25.36,25.36,0,0,0-3-.56,10.32,10.32,0,0,0-2.33-.21h0A1.11,1.11,0,0,0,8.51,20a.78.78,0,0,0,.17-.54A1.47,1.47,0,0,0,8.3,18.64Zm.28,1.23a4,4,0,0,0,.82.88,2,2,0,0,0,1,.43,2.91,2.91,0,0,0-.88,0c-.11,0,.08.11.58.24l3.67.88a23,23,0,0,0-3-.57,10,10,0,0,0-2.34-.2h0a1.23,1.23,0,0,0,.34-.28A.76.76,0,0,0,9,20.71,1.44,1.44,0,0,0,8.58,19.87ZM9,21.19a4.09,4.09,0,0,0,.83.88,1.88,1.88,0,0,0,1,.43,2.92,2.92,0,0,0-.88,0c-.11,0,.09.11.58.24l3.67.88a23,23,0,0,0-3-.57,10,10,0,0,0-2.33-.2h0a1.27,1.27,0,0,0,.35-.28A.81.81,0,0,0,9.34,22,1.46,1.46,0,0,0,9,21.19Zm.39,1.3a3.82,3.82,0,0,0,.82.88,2,2,0,0,0,1,.43,3.63,3.63,0,0,0-.89,0c-.1,0,.09.12.59.25l3.67.87a25.8,25.8,0,0,0-3-.56,9.43,9.43,0,0,0-2.34-.2h0a1.32,1.32,0,0,0,.35-.29.78.78,0,0,0,.17-.54A1.44,1.44,0,0,0,9.35,22.49Zm.83,1.19a3.77,3.77,0,0,0,.82.87A1.94,1.94,0,0,0,12,25a3.08,3.08,0,0,0-.88,0c-.11,0,.09.12.58.25l3.68.87a25.64,25.64,0,0,0-3-.56A10.29,10.29,0,0,0,10,25.33h0a1.11,1.11,0,0,0,.35-.28.78.78,0,0,0,.17-.54A1.51,1.51,0,0,0,10.18,23.68Zm.55-1.26a3.77,3.77,0,0,0,.82.87,2,2,0,0,0,1,.44,3.16,3.16,0,0,0-.89,0c-.1,0,.09.12.59.25l3.67.87a25.8,25.8,0,0,0-3-.56,10.39,10.39,0,0,0-2.34-.21h0a1.11,1.11,0,0,0,.35-.28.78.78,0,0,0,.17-.54A1.44,1.44,0,0,0,10.73,22.42Zm.41-1.17a3.82,3.82,0,0,0,.82.88,1.92,1.92,0,0,0,1,.43,2.92,2.92,0,0,0-.88,0c-.11,0,.09.11.58.24l3.68.88a23.21,23.21,0,0,0-3-.57,9.94,9.94,0,0,0-2.33-.2h0a1.27,1.27,0,0,0,.35-.28.81.81,0,0,0,.17-.54A1.51,1.51,0,0,0,11.14,21.25Zm.38-1.34a4,4,0,0,0,.82.88,2,2,0,0,0,1,.43,3.53,3.53,0,0,0-.88,0c-.11,0,.08.12.58.25l3.67.87a25.36,25.36,0,0,0-3-.56,9.43,9.43,0,0,0-2.34-.2h0a1.28,1.28,0,0,0,.34-.29.73.73,0,0,0,.17-.54A1.44,1.44,0,0,0,11.52,19.91ZM12,18.75a4.23,4.23,0,0,0,.82.87,2,2,0,0,0,1,.43,2.92,2.92,0,0,0-.88,0c-.11,0,.08.12.58.24l3.67.88a23.4,23.4,0,0,0-3-.56,10.35,10.35,0,0,0-2.33-.21h0a1.43,1.43,0,0,0,.35-.28.77.77,0,0,0,.16-.54A1.42,1.42,0,0,0,12,18.75ZM12.47,21a3.82,3.82,0,0,0,.82.88,2,2,0,0,0,1,.43,3.63,3.63,0,0,0-.89,0c-.1,0,.09.12.59.25l3.67.87a25.8,25.8,0,0,0-3-.56,9.43,9.43,0,0,0-2.34-.2h0a1.32,1.32,0,0,0,.35-.29.78.78,0,0,0,.17-.54A1.44,1.44,0,0,0,12.47,21Zm.38,1.4a4,4,0,0,0,.82.88,2,2,0,0,0,1,.43,2.92,2.92,0,0,0-.88,0c-.11,0,.08.11.58.24l3.67.88a23,23,0,0,0-3-.57,10,10,0,0,0-2.33-.2h0a1.43,1.43,0,0,0,.35-.28.81.81,0,0,0,.16-.54A1.44,1.44,0,0,0,12.85,22.39Zm.94,1.3a3.82,3.82,0,0,0,.82.88,2,2,0,0,0,1,.43,3.63,3.63,0,0,0-.89,0c-.1,0,.09.12.59.25l3.67.87a25.8,25.8,0,0,0-3-.56,9.43,9.43,0,0,0-2.34-.2h0a1.32,1.32,0,0,0,.35-.29.78.78,0,0,0,.17-.54A1.44,1.44,0,0,0,13.79,23.69Zm.59-1.33a3.77,3.77,0,0,0,.82.87,1.94,1.94,0,0,0,1,.44,3.08,3.08,0,0,0-.88,0c-.11,0,.09.12.58.25l3.68.87a25.64,25.64,0,0,0-3-.56A10.29,10.29,0,0,0,14.22,24h0a1.11,1.11,0,0,0,.35-.28.78.78,0,0,0,.17-.54A1.51,1.51,0,0,0,14.38,22.36Zm.32-1.06a4,4,0,0,0,.82.88,2,2,0,0,0,1,.43,3.53,3.53,0,0,0-.88,0c-.11,0,.08.12.58.25l3.67.88a23,23,0,0,0-3-.57,9.43,9.43,0,0,0-2.34-.2h0a1.44,1.44,0,0,0,.34-.28.76.76,0,0,0,.17-.54A1.44,1.44,0,0,0,14.7,21.3ZM15,19.87a4,4,0,0,0,.82.88,2,2,0,0,0,1,.43,2.92,2.92,0,0,0-.88,0c-.11,0,.08.11.58.24l3.67.88a23,23,0,0,0-3-.57,10,10,0,0,0-2.33-.2h0a1.43,1.43,0,0,0,.35-.28.81.81,0,0,0,.16-.54A1.44,1.44,0,0,0,15,19.87Zm.28-1.15a3.82,3.82,0,0,0,.82.88,2,2,0,0,0,1,.43,3.63,3.63,0,0,0-.89,0c-.1,0,.09.12.59.25l3.67.88a23.33,23.33,0,0,0-3-.57,9.43,9.43,0,0,0-2.34-.2h0a1.48,1.48,0,0,0,.35-.28.81.81,0,0,0,.17-.54A1.44,1.44,0,0,0,15.29,18.72Z" transform="translate(-8.15 -15.33)"/><path class="cls-1" d="M17.9,15.33a4.28,4.28,0,0,0,.83.87,1.88,1.88,0,0,0,1,.43,2.92,2.92,0,0,0-.88,0c-.11,0,.09.12.58.24l3.67.88a23.4,23.4,0,0,0-3-.56A10.32,10.32,0,0,0,17.75,17h0a1.27,1.27,0,0,0,.35-.28.78.78,0,0,0,.17-.54A1.44,1.44,0,0,0,17.9,15.33Zm0,1.22a4.09,4.09,0,0,0,.83.88,2,2,0,0,0,1,.43,3.55,3.55,0,0,0-.88,0c-.11,0,.09.12.58.25l3.67.87a25.36,25.36,0,0,0-3-.56,9.37,9.37,0,0,0-2.33-.2h0a1.32,1.32,0,0,0,.35-.29.78.78,0,0,0,.17-.54A1.47,1.47,0,0,0,17.9,16.55Zm0,1.22a4.09,4.09,0,0,0,.83.88,1.88,1.88,0,0,0,1,.43,2.92,2.92,0,0,0-.88,0c-.11,0,.09.11.58.24l3.67.88a23,23,0,0,0-3-.57,10,10,0,0,0-2.33-.2h0a1.27,1.27,0,0,0,.35-.28.81.81,0,0,0,.17-.54A1.46,1.46,0,0,0,17.9,17.77Zm0,1.14a4.09,4.09,0,0,0,.83.88,1.88,1.88,0,0,0,1,.43,2.92,2.92,0,0,0-.88,0c-.11,0,.09.11.58.24l3.67.88a23,23,0,0,0-3-.57,10,10,0,0,0-2.33-.2h0a1.27,1.27,0,0,0,.35-.28.81.81,0,0,0,.17-.54A1.46,1.46,0,0,0,17.9,18.91Zm0,1.19a4.09,4.09,0,0,0,.83.88,1.88,1.88,0,0,0,1,.43,3.55,3.55,0,0,0-.88,0c-.11,0,.09.12.58.25l3.67.88a23,23,0,0,0-3-.57,9.37,9.37,0,0,0-2.33-.2h0a1.48,1.48,0,0,0,.35-.28.81.81,0,0,0,.17-.54A1.46,1.46,0,0,0,17.9,20.1Zm0,1.19a4.09,4.09,0,0,0,.83.88,2,2,0,0,0,1,.43,3.55,3.55,0,0,0-.88,0c-.11,0,.09.12.58.25l3.67.87a25.36,25.36,0,0,0-3-.56,9.37,9.37,0,0,0-2.33-.2h0a1.32,1.32,0,0,0,.35-.29.78.78,0,0,0,.17-.54A1.47,1.47,0,0,0,17.9,21.29Zm0,2.42a4.09,4.09,0,0,0,.83.88,1.88,1.88,0,0,0,1,.43,2.92,2.92,0,0,0-.88,0c-.11,0,.09.11.58.24l3.67.88a23,23,0,0,0-3-.57,10,10,0,0,0-2.33-.2h0a1.27,1.27,0,0,0,.35-.28.81.81,0,0,0,.17-.54A1.46,1.46,0,0,0,17.9,23.71Zm0-1.22a3.82,3.82,0,0,0,.82.88,2,2,0,0,0,1,.43,3.55,3.55,0,0,0-.88,0c-.11,0,.09.12.58.25l3.68.87a25.64,25.64,0,0,0-3-.56,9.35,9.35,0,0,0-2.33-.2h0a1.32,1.32,0,0,0,.35-.29.78.78,0,0,0,.17-.54A1.51,1.51,0,0,0,17.92,22.49Zm1.4-3.84a4,4,0,0,0,.82.88,2,2,0,0,0,1,.43,3.53,3.53,0,0,0-.88,0c-.11,0,.08.12.58.25l3.67.87a25.36,25.36,0,0,0-3-.56,9.43,9.43,0,0,0-2.34-.2h0a1.28,1.28,0,0,0,.34-.29.73.73,0,0,0,.17-.54A1.44,1.44,0,0,0,19.32,18.65Zm1.51.26a4,4,0,0,0,.82.88,2,2,0,0,0,1,.43,2.92,2.92,0,0,0-.88,0c-.11,0,.08.11.58.24l3.67.88a23,23,0,0,0-3-.57,10,10,0,0,0-2.33-.2h0a1.43,1.43,0,0,0,.35-.28.81.81,0,0,0,.16-.54A1.44,1.44,0,0,0,20.83,18.91Zm0,1.22a4.23,4.23,0,0,0,.82.87,2,2,0,0,0,1,.43,2.92,2.92,0,0,0-.88,0c-.11,0,.08.12.58.24l3.67.88A23.4,23.4,0,0,0,23,22a10.35,10.35,0,0,0-2.33-.21h0A1.43,1.43,0,0,0,21,21.5.77.77,0,0,0,21.2,21,1.42,1.42,0,0,0,20.83,20.13Zm0,1.18a4,4,0,0,0,.82.88,2,2,0,0,0,1,.43,2.92,2.92,0,0,0-.88,0c-.11,0,.08.11.58.24l3.67.88a23,23,0,0,0-3-.57,10,10,0,0,0-2.33-.2h0a1.43,1.43,0,0,0,.35-.28.81.81,0,0,0,.16-.54A1.44,1.44,0,0,0,20.83,21.31Zm0,1.22a4.23,4.23,0,0,0,.82.87,2,2,0,0,0,1,.43,2.92,2.92,0,0,0-.88,0c-.11,0,.08.12.58.24L26,25a23.4,23.4,0,0,0-3-.56,10.35,10.35,0,0,0-2.33-.21h0A1.43,1.43,0,0,0,21,23.9a.77.77,0,0,0,.16-.54A1.42,1.42,0,0,0,20.83,22.53Zm0,1.17a4,4,0,0,0,.82.88,2,2,0,0,0,1,.43,3.55,3.55,0,0,0-.88,0c-.11,0,.08.12.58.25l3.67.88a23,23,0,0,0-3-.57,9.39,9.39,0,0,0-2.33-.2h0a1.72,1.72,0,0,0,.35-.28.81.81,0,0,0,.16-.54A1.44,1.44,0,0,0,20.83,23.7Z" transform="translate(-8.15 -15.33)"/><path class="cls-1" d="M24,20.17a4.09,4.09,0,0,0,.83.88,1.88,1.88,0,0,0,1,.43,2.92,2.92,0,0,0-.88,0c-.11,0,.09.11.58.24l3.67.88a23,23,0,0,0-3-.57,10,10,0,0,0-2.33-.2h0a1.27,1.27,0,0,0,.35-.28.81.81,0,0,0,.17-.54A1.46,1.46,0,0,0,24,20.17Zm0,1.38a3.82,3.82,0,0,0,.82.88,2,2,0,0,0,1,.43,2.92,2.92,0,0,0-.88,0c-.11,0,.09.11.58.24l3.68.88a23.33,23.33,0,0,0-3-.57,10,10,0,0,0-2.34-.2h0a1.27,1.27,0,0,0,.35-.28.81.81,0,0,0,.17-.54A1.51,1.51,0,0,0,24,21.55Zm.15,1.32a4.3,4.3,0,0,0,.82.88,2,2,0,0,0,1,.43,2.92,2.92,0,0,0-.88,0c-.11,0,.08.11.58.24l3.67.88a23,23,0,0,0-3-.57,10,10,0,0,0-2.33-.2h0a1.43,1.43,0,0,0,.35-.28.81.81,0,0,0,.16-.54A1.44,1.44,0,0,0,24.14,22.87Zm.59-3.66a4,4,0,0,0,.82.88,2,2,0,0,0,1,.43,2.91,2.91,0,0,0-.88,0c-.11,0,.08.11.58.24l3.67.88a23,23,0,0,0-3-.57,10,10,0,0,0-2.34-.2h0a1.43,1.43,0,0,0,.35-.28.81.81,0,0,0,.16-.54A1.44,1.44,0,0,0,24.73,19.21Zm.94,4.44a3.82,3.82,0,0,0,.82.88,1.91,1.91,0,0,0,1,.43,3,3,0,0,0-.89,0c-.11,0,.09.11.58.24l3.68.88a23.21,23.21,0,0,0-3-.57,9.94,9.94,0,0,0-2.33-.2h0a1.27,1.27,0,0,0,.35-.28.81.81,0,0,0,.17-.54A1.51,1.51,0,0,0,25.67,23.65Zm.1-5.08a4.28,4.28,0,0,0,.83.87,1.88,1.88,0,0,0,1,.43,2.92,2.92,0,0,0-.88,0c-.11,0,.09.12.58.24l3.68.88a24,24,0,0,0-3-.56,10.32,10.32,0,0,0-2.33-.21h0a1.27,1.27,0,0,0,.35-.28.78.78,0,0,0,.17-.54A1.44,1.44,0,0,0,25.77,18.57Zm.11,2.78a3.86,3.86,0,0,0,.83.88,2,2,0,0,0,1,.43,3.55,3.55,0,0,0-.88,0c-.11,0,.08.12.58.25l3.67.87a25.36,25.36,0,0,0-3-.56,9.37,9.37,0,0,0-2.33-.2h0a1.49,1.49,0,0,0,.35-.29.77.77,0,0,0,.16-.54A1.44,1.44,0,0,0,25.88,21.35ZM27,20.58a3.82,3.82,0,0,0,.82.88,2,2,0,0,0,1,.43,3.63,3.63,0,0,0-.89,0c-.1,0,.09.12.59.25l3.67.88a23.33,23.33,0,0,0-3-.57,9.43,9.43,0,0,0-2.34-.2h0A1.48,1.48,0,0,0,27.2,22a.81.81,0,0,0,.17-.54A1.44,1.44,0,0,0,27,20.58Zm.15,2.57A4.09,4.09,0,0,0,28,24a2,2,0,0,0,1,.43,3.55,3.55,0,0,0-.88,0c-.11,0,.09.12.58.25l3.67.87a25.36,25.36,0,0,0-3-.56,9.37,9.37,0,0,0-2.33-.2h0a1.32,1.32,0,0,0,.35-.29.78.78,0,0,0,.17-.54A1.47,1.47,0,0,0,27.15,23.15Zm.25-4a3.82,3.82,0,0,0,.82.88,2,2,0,0,0,1,.43,3.55,3.55,0,0,0-.88,0c-.11,0,.09.12.58.25l3.67.87a24.94,24.94,0,0,0-3-.56,9.37,9.37,0,0,0-2.33-.2h0a1.32,1.32,0,0,0,.35-.29.78.78,0,0,0,.17-.54A1.51,1.51,0,0,0,27.4,19.19Z" transform="translate(-8.15 -15.33)"/><path class="cls-1" d="M31.51,17.88a4,4,0,0,0,.82.88,2,2,0,0,0,1,.43,3.53,3.53,0,0,0-.88,0c-.11,0,.08.12.58.25l3.67.88a23,23,0,0,0-3-.57,9.43,9.43,0,0,0-2.34-.2h0a1.44,1.44,0,0,0,.34-.28.76.76,0,0,0,.17-.54A1.44,1.44,0,0,0,31.51,17.88Zm0,1.12a4,4,0,0,0,.82.87,2,2,0,0,0,1,.44,3.07,3.07,0,0,0-.88,0c-.11,0,.08.12.58.25l3.67.87a25.36,25.36,0,0,0-3-.56,10.39,10.39,0,0,0-2.34-.21h0a1.08,1.08,0,0,0,.34-.28.73.73,0,0,0,.17-.54A1.44,1.44,0,0,0,31.51,19Zm0,1.11a4,4,0,0,0,.82.88,2,2,0,0,0,1,.43,2.91,2.91,0,0,0-.88,0c-.11,0,.08.11.58.24l3.67.88a23,23,0,0,0-3-.57,10,10,0,0,0-2.34-.2h0a1.23,1.23,0,0,0,.34-.28.76.76,0,0,0,.17-.54A1.44,1.44,0,0,0,31.51,20.11Zm0,1.16a4.28,4.28,0,0,0,.83.87,1.88,1.88,0,0,0,1,.43,2.92,2.92,0,0,0-.88,0c-.11,0,.09.12.58.24l3.67.88a23.4,23.4,0,0,0-3-.56,10.32,10.32,0,0,0-2.33-.21h0a1.27,1.27,0,0,0,.35-.28.78.78,0,0,0,.17-.54A1.44,1.44,0,0,0,31.53,21.27Zm0,2.32a3.82,3.82,0,0,0,.82.88,2,2,0,0,0,1,.43,3,3,0,0,0-.89,0c-.1,0,.09.11.59.24l3.67.88a23.33,23.33,0,0,0-3-.57,10,10,0,0,0-2.34-.2h0a1.27,1.27,0,0,0,.35-.28.81.81,0,0,0,.17-.54A1.44,1.44,0,0,0,31.56,23.59Zm0-1.15a4,4,0,0,0,.82.88,2,2,0,0,0,1,.43,3.55,3.55,0,0,0-.88,0c-.11,0,.08.12.58.25l3.67.88a23,23,0,0,0-3-.57,9.39,9.39,0,0,0-2.33-.2h0a1.72,1.72,0,0,0,.35-.28.81.81,0,0,0,.16-.54A1.44,1.44,0,0,0,31.58,22.44Zm1-3a3.82,3.82,0,0,0,.82.88,2,2,0,0,0,1,.43,3.63,3.63,0,0,0-.89,0c-.1,0,.09.12.59.25l3.67.87a25.8,25.8,0,0,0-3-.56,9.43,9.43,0,0,0-2.34-.2h0a1.32,1.32,0,0,0,.35-.29.78.78,0,0,0,.17-.54A1.44,1.44,0,0,0,32.58,19.49Zm.56-.84a4,4,0,0,0,.82.88,2,2,0,0,0,1,.43,3.55,3.55,0,0,0-.88,0c-.11,0,.08.12.58.25l3.67.87a25.36,25.36,0,0,0-3-.56,9.39,9.39,0,0,0-2.33-.2h0a1.49,1.49,0,0,0,.35-.29.77.77,0,0,0,.16-.54A1.44,1.44,0,0,0,33.14,18.65Zm1-.25a4,4,0,0,0,.82.87,2,2,0,0,0,1,.44,3.08,3.08,0,0,0-.88,0c-.11,0,.08.12.58.25l3.67.87a25.36,25.36,0,0,0-3-.56A10.35,10.35,0,0,0,34,20.05h0a1.23,1.23,0,0,0,.35-.28.77.77,0,0,0,.16-.54A1.44,1.44,0,0,0,34.1,18.4Z" transform="translate(-8.15 -15.33)"/><path class="cls-1" d="M37.31,20.17a3.82,3.82,0,0,0,.82.88,1.92,1.92,0,0,0,1,.43,2.92,2.92,0,0,0-.88,0c-.11,0,.09.11.58.24l3.68.88a23.21,23.21,0,0,0-3-.57,9.94,9.94,0,0,0-2.33-.2h0a1.27,1.27,0,0,0,.35-.28.81.81,0,0,0,.17-.54A1.51,1.51,0,0,0,37.31,20.17Zm0,1.38a3.82,3.82,0,0,0,.82.88,2,2,0,0,0,1,.43,2.91,2.91,0,0,0-.88,0c-.11,0,.08.11.58.24l3.67.88a23.33,23.33,0,0,0-3-.57,10,10,0,0,0-2.34-.2h0a1.27,1.27,0,0,0,.35-.28.81.81,0,0,0,.17-.54A1.44,1.44,0,0,0,37.32,21.55Zm.16,1.32a3.82,3.82,0,0,0,.82.88,1.88,1.88,0,0,0,1,.43,2.92,2.92,0,0,0-.88,0c-.11,0,.09.11.58.24l3.67.88a23,23,0,0,0-3-.57,10,10,0,0,0-2.33-.2h0a1.27,1.27,0,0,0,.35-.28.81.81,0,0,0,.17-.54A1.51,1.51,0,0,0,37.48,22.87Zm.58-3.66a4,4,0,0,0,.82.88,2,2,0,0,0,1,.43,2.92,2.92,0,0,0-.88,0c-.11,0,.08.11.58.24l3.67.88a23,23,0,0,0-3-.57,10,10,0,0,0-2.33-.2h0a1.43,1.43,0,0,0,.35-.28.81.81,0,0,0,.17-.54A1.46,1.46,0,0,0,38.06,19.21ZM39,23.65a3.82,3.82,0,0,0,.82.88,2,2,0,0,0,1,.43,3,3,0,0,0-.89,0c-.1,0,.09.11.59.24l3.67.88a23.33,23.33,0,0,0-3-.57,10,10,0,0,0-2.34-.2h0A1.14,1.14,0,0,0,39.2,25a.81.81,0,0,0,.17-.54A1.44,1.44,0,0,0,39,23.65Zm.11-5.08a4,4,0,0,0,.82.87,1.91,1.91,0,0,0,1,.43,3,3,0,0,0-.89,0c-.11,0,.09.12.58.24l3.68.88a23.64,23.64,0,0,0-3-.56A10.29,10.29,0,0,0,39,20.22h0a1.27,1.27,0,0,0,.35-.28.78.78,0,0,0,.17-.54A1.48,1.48,0,0,0,39.11,18.57Zm.1,2.78a4.09,4.09,0,0,0,.83.88,2,2,0,0,0,1,.43,3.55,3.55,0,0,0-.88,0c-.11,0,.09.12.58.25l3.68.87a26.08,26.08,0,0,0-3-.56,9.37,9.37,0,0,0-2.33-.2h0a1.32,1.32,0,0,0,.35-.29.78.78,0,0,0,.17-.54A1.47,1.47,0,0,0,39.21,21.35Zm1.12-.77a4,4,0,0,0,.82.88,2,2,0,0,0,1,.43,3.53,3.53,0,0,0-.88,0c-.11,0,.08.12.58.25l3.67.88a23,23,0,0,0-3-.57,9.43,9.43,0,0,0-2.34-.2h0a1.44,1.44,0,0,0,.34-.28.76.76,0,0,0,.17-.54A1.44,1.44,0,0,0,40.33,20.58Zm.16,2.57a3.82,3.82,0,0,0,.82.88,2,2,0,0,0,1,.43,3.55,3.55,0,0,0-.88,0c-.11,0,.09.12.59.25l3.67.87a25.8,25.8,0,0,0-3-.56,9.43,9.43,0,0,0-2.34-.2h0a1.32,1.32,0,0,0,.35-.29.78.78,0,0,0,.17-.54A1.51,1.51,0,0,0,40.49,23.15Zm.24-4a3.82,3.82,0,0,0,.82.88,2,2,0,0,0,1,.43,3.55,3.55,0,0,0-.88,0c-.11,0,.09.12.58.25l3.68.87a25.64,25.64,0,0,0-3-.56,9.35,9.35,0,0,0-2.33-.2h0a1.32,1.32,0,0,0,.35-.29A.78.78,0,0,0,41.1,20,1.51,1.51,0,0,0,40.73,19.19Z" transform="translate(-8.15 -15.33)"/><path class="cls-1" d="M48.14,17.92a4.25,4.25,0,0,0,.82.87,2,2,0,0,0,1,.44,3.08,3.08,0,0,0-.88,0c-.11,0,.08.12.58.25l3.67.87a25.36,25.36,0,0,0-3-.56A10.35,10.35,0,0,0,48,19.57h0a1.23,1.23,0,0,0,.35-.28.77.77,0,0,0,.16-.54A1.44,1.44,0,0,0,48.14,17.92Zm.06,2a4,4,0,0,0,.82.88,2,2,0,0,0,1,.43,2.92,2.92,0,0,0-.88,0c-.11,0,.08.11.58.24l3.67.88a23,23,0,0,0-3-.57,10,10,0,0,0-2.33-.2h0a1.43,1.43,0,0,0,.35-.28.81.81,0,0,0,.16-.54A1.44,1.44,0,0,0,48.2,19.93Zm0,1.2a3.82,3.82,0,0,0,.82.88,1.92,1.92,0,0,0,1,.43,2.92,2.92,0,0,0-.88,0c-.11,0,.09.11.58.24l3.68.88a23.21,23.21,0,0,0-3-.57,9.94,9.94,0,0,0-2.33-.2h0a1.27,1.27,0,0,0,.35-.28A.81.81,0,0,0,48.6,22,1.51,1.51,0,0,0,48.23,21.13Zm0,2.37a4,4,0,0,0,.82.87,2,2,0,0,0,1,.44,3.08,3.08,0,0,0-.88,0c-.11,0,.08.12.58.25l3.67.87a25.36,25.36,0,0,0-3-.56,10.35,10.35,0,0,0-2.33-.21h0a1.23,1.23,0,0,0,.35-.28.77.77,0,0,0,.16-.54A1.44,1.44,0,0,0,48.26,23.5Zm0-1.19a3.82,3.82,0,0,0,.82.88,2,2,0,0,0,1,.43,3.55,3.55,0,0,0-.88,0c-.11,0,.09.12.58.25l3.68.87a25.64,25.64,0,0,0-3-.56,9.35,9.35,0,0,0-2.33-.2h0a1.32,1.32,0,0,0,.35-.29.78.78,0,0,0,.17-.54A1.51,1.51,0,0,0,48.29,22.31Z" transform="translate(-8.15 -15.33)"/><path class="cls-1" d="M53,19.81a4.09,4.09,0,0,0,.83.88,1.88,1.88,0,0,0,1,.43,2.92,2.92,0,0,0-.88,0c-.11,0,.09.11.58.24l3.67.88a23,23,0,0,0-3-.57,10,10,0,0,0-2.33-.2h0a1.27,1.27,0,0,0,.35-.28.81.81,0,0,0,.17-.54A1.46,1.46,0,0,0,53,19.81ZM53,21.75a4,4,0,0,0,.82.87,1.92,1.92,0,0,0,1,.43,2.92,2.92,0,0,0-.88,0c-.11,0,.09.12.58.24l3.68.88a23.64,23.64,0,0,0-3-.56,10.29,10.29,0,0,0-2.33-.21h0a1.27,1.27,0,0,0,.35-.28.78.78,0,0,0,.17-.54A1.48,1.48,0,0,0,53,21.75ZM53.22,23a3.77,3.77,0,0,0,.82.87,2,2,0,0,0,1,.44,3.16,3.16,0,0,0-.89,0c-.1,0,.09.12.59.25l3.67.87a25.8,25.8,0,0,0-3-.56,10.39,10.39,0,0,0-2.34-.21h0a1.11,1.11,0,0,0,.35-.28.78.78,0,0,0,.17-.54A1.44,1.44,0,0,0,53.22,23Zm.15-4.12a4.09,4.09,0,0,0,.83.88,1.88,1.88,0,0,0,1,.43,3.55,3.55,0,0,0-.88,0c-.11,0,.09.12.58.25l3.67.88a23,23,0,0,0-3-.57,9.37,9.37,0,0,0-2.33-.2h0a1.48,1.48,0,0,0,.35-.28.81.81,0,0,0,.17-.54A1.46,1.46,0,0,0,53.37,18.84Zm.92,1.9a3.77,3.77,0,0,0,.82.87,1.94,1.94,0,0,0,1,.44,3.08,3.08,0,0,0-.88,0c-.11,0,.09.12.58.25l3.68.87a25.64,25.64,0,0,0-3-.56,10.29,10.29,0,0,0-2.33-.21h0a1.11,1.11,0,0,0,.35-.28.78.78,0,0,0,.17-.54A1.51,1.51,0,0,0,54.29,20.74Zm.15-2.45a4,4,0,0,0,.82.88,2,2,0,0,0,1,.43,3.55,3.55,0,0,0-.88,0c-.11,0,.08.12.58.25l3.67.87a25.36,25.36,0,0,0-3-.56,9.39,9.39,0,0,0-2.33-.2h0a1.49,1.49,0,0,0,.35-.29.77.77,0,0,0,.16-.54A1.44,1.44,0,0,0,54.44,18.29Zm.27,5.34a3.82,3.82,0,0,0,.82.88,2,2,0,0,0,1,.43,3.55,3.55,0,0,0-.88,0c-.11,0,.09.12.58.25l3.68.87a25.64,25.64,0,0,0-3-.56,9.35,9.35,0,0,0-2.33-.2h0a1.32,1.32,0,0,0,.35-.29.78.78,0,0,0,.17-.54A1.51,1.51,0,0,0,54.71,23.63Zm.93-2.05a4,4,0,0,0,.82.87,2,2,0,0,0,1,.44,3.08,3.08,0,0,0-.88,0c-.11,0,.08.12.58.25L60.8,24a25.36,25.36,0,0,0-3-.56,10.35,10.35,0,0,0-2.33-.21h0a1.23,1.23,0,0,0,.35-.28.77.77,0,0,0,.16-.54A1.44,1.44,0,0,0,55.64,21.58Zm.06-2.45a4,4,0,0,0,.82.88,2,2,0,0,0,1,.43,3.55,3.55,0,0,0-.88,0c-.11,0,.08.12.58.25l3.67.87a25.36,25.36,0,0,0-3-.56,9.39,9.39,0,0,0-2.33-.2h0a1.49,1.49,0,0,0,.35-.29.77.77,0,0,0,.16-.54A1.44,1.44,0,0,0,55.7,19.13Zm.15,3.72a3.82,3.82,0,0,0,.82.88,2,2,0,0,0,1,.43,3.55,3.55,0,0,0-.88,0c-.11,0,.09.12.58.25l3.68.87a25.64,25.64,0,0,0-3-.56,9.35,9.35,0,0,0-2.33-.2h0a1.32,1.32,0,0,0,.35-.29.78.78,0,0,0,.17-.54A1.51,1.51,0,0,0,55.85,22.85Z" transform="translate(-8.15 -15.33)"/><path class="cls-1" d="M63.48,18.91a3.82,3.82,0,0,0,.82.88,2,2,0,0,0,1,.43,3,3,0,0,0-.89,0c-.1,0,.09.11.59.24l3.67.88a23.33,23.33,0,0,0-3-.57,10,10,0,0,0-2.34-.2h0a1.27,1.27,0,0,0,.35-.28.81.81,0,0,0,.17-.54A1.44,1.44,0,0,0,63.48,18.91Zm1.35-2.36a4.09,4.09,0,0,0,.83.88,2,2,0,0,0,1,.43,3.55,3.55,0,0,0-.88,0c-.11,0,.09.12.58.25L70,19a25.36,25.36,0,0,0-3-.56,9.37,9.37,0,0,0-2.33-.2h0a1.32,1.32,0,0,0,.35-.29.78.78,0,0,0,.17-.54A1.47,1.47,0,0,0,64.83,16.55Zm0,1.16a4,4,0,0,0,.82.88,2,2,0,0,0,1,.43,2.91,2.91,0,0,0-.88,0c-.11,0,.08.11.58.24l3.67.88a23,23,0,0,0-3-.57,10,10,0,0,0-2.34-.2h0a1.23,1.23,0,0,0,.34-.28.76.76,0,0,0,.17-.54A1.44,1.44,0,0,0,64.87,17.71Zm.07,1.14a4,4,0,0,0,.82.88,2,2,0,0,0,1,.43,2.92,2.92,0,0,0-.88,0c-.11,0,.08.11.58.24l3.67.88a23,23,0,0,0-3-.57,10,10,0,0,0-2.33-.2h0a1.43,1.43,0,0,0,.35-.28.81.81,0,0,0,.16-.54A1.44,1.44,0,0,0,64.94,18.85ZM65,20a3.82,3.82,0,0,0,.82.88,1.92,1.92,0,0,0,1,.43,3.55,3.55,0,0,0-.88,0c-.11,0,.09.12.58.25l3.68.88a23.21,23.21,0,0,0-3-.57,9.35,9.35,0,0,0-2.33-.2h0a1.48,1.48,0,0,0,.35-.28.81.81,0,0,0,.17-.54A1.51,1.51,0,0,0,65,20Zm0,2.38a4,4,0,0,0,.82.87,2,2,0,0,0,1,.44,3.08,3.08,0,0,0-.88,0c-.11,0,.08.12.58.25l3.67.87a25.36,25.36,0,0,0-3-.56,10.35,10.35,0,0,0-2.33-.21h0a1.23,1.23,0,0,0,.35-.28.77.77,0,0,0,.16-.54A1.44,1.44,0,0,0,65,22.42Zm0,1.25a4.23,4.23,0,0,0,.82.87,2,2,0,0,0,1,.43,2.92,2.92,0,0,0-.88,0c-.11,0,.08.12.58.24l3.67.88a23.4,23.4,0,0,0-3-.56,10.35,10.35,0,0,0-2.33-.21h0a1.43,1.43,0,0,0,.35-.28.77.77,0,0,0,.16-.54A1.42,1.42,0,0,0,65,23.67Zm0-2.44a3.82,3.82,0,0,0,.82.88,2,2,0,0,0,1,.43,3.55,3.55,0,0,0-.88,0c-.11,0,.09.12.58.25l3.68.87a25.64,25.64,0,0,0-3-.56,9.35,9.35,0,0,0-2.33-.2h0a1.32,1.32,0,0,0,.35-.29.78.78,0,0,0,.17-.54A1.51,1.51,0,0,0,65,21.23Zm1.57,2.15a3.77,3.77,0,0,0,.82.87,2,2,0,0,0,1,.44,3.16,3.16,0,0,0-.89,0c-.1,0,.09.12.59.25l3.67.87a25.8,25.8,0,0,0-3-.56A10.39,10.39,0,0,0,66.44,25h0a1.11,1.11,0,0,0,.35-.28.78.78,0,0,0,.17-.54A1.44,1.44,0,0,0,66.6,23.38Zm.12-4.59a3.82,3.82,0,0,0,.82.88,2,2,0,0,0,1,.43,3,3,0,0,0-.89,0c-.1,0,.09.11.59.24l3.67.88a23.33,23.33,0,0,0-3-.57,10,10,0,0,0-2.34-.2h0a1.27,1.27,0,0,0,.35-.28.81.81,0,0,0,.17-.54A1.44,1.44,0,0,0,66.72,18.79Z" transform="translate(-8.15 -15.33)"/><path class="cls-1" d="M69.69,15.33a4.28,4.28,0,0,0,.83.87,1.88,1.88,0,0,0,1,.43,2.92,2.92,0,0,0-.88,0c-.11,0,.09.12.58.24l3.67.88a23.4,23.4,0,0,0-3-.56A10.32,10.32,0,0,0,69.54,17h0a1.27,1.27,0,0,0,.35-.28.78.78,0,0,0,.17-.54A1.44,1.44,0,0,0,69.69,15.33Zm0,1.22a4.09,4.09,0,0,0,.83.88,2,2,0,0,0,1,.43,3.55,3.55,0,0,0-.88,0c-.11,0,.09.12.58.25l3.67.87a25.36,25.36,0,0,0-3-.56,9.37,9.37,0,0,0-2.33-.2h0a1.32,1.32,0,0,0,.35-.29.78.78,0,0,0,.17-.54A1.47,1.47,0,0,0,69.69,16.55Zm0,1.22a4.09,4.09,0,0,0,.83.88,1.88,1.88,0,0,0,1,.43,2.92,2.92,0,0,0-.88,0c-.11,0,.09.11.58.24l3.67.88a23,23,0,0,0-3-.57,10,10,0,0,0-2.33-.2h0a1.27,1.27,0,0,0,.35-.28.81.81,0,0,0,.17-.54A1.46,1.46,0,0,0,69.69,17.77Zm0,1.14a4.09,4.09,0,0,0,.83.88,1.88,1.88,0,0,0,1,.43,2.92,2.92,0,0,0-.88,0c-.11,0,.09.11.58.24l3.67.88a23,23,0,0,0-3-.57,10,10,0,0,0-2.33-.2h0a1.27,1.27,0,0,0,.35-.28.81.81,0,0,0,.17-.54A1.46,1.46,0,0,0,69.69,18.91Zm0,1.19a4.09,4.09,0,0,0,.83.88,1.88,1.88,0,0,0,1,.43,3.55,3.55,0,0,0-.88,0c-.11,0,.09.12.58.25l3.67.88a23,23,0,0,0-3-.57,9.37,9.37,0,0,0-2.33-.2h0a1.48,1.48,0,0,0,.35-.28.81.81,0,0,0,.17-.54A1.46,1.46,0,0,0,69.69,20.1Zm0,1.19a4.09,4.09,0,0,0,.83.88,2,2,0,0,0,1,.43,3.55,3.55,0,0,0-.88,0c-.11,0,.09.12.58.25l3.67.87a25.36,25.36,0,0,0-3-.56,9.37,9.37,0,0,0-2.33-.2h0a1.32,1.32,0,0,0,.35-.29.78.78,0,0,0,.17-.54A1.47,1.47,0,0,0,69.69,21.29Zm0,2.42a4.09,4.09,0,0,0,.83.88,1.88,1.88,0,0,0,1,.43,2.92,2.92,0,0,0-.88,0c-.11,0,.09.11.58.24l3.67.88a23,23,0,0,0-3-.57,10,10,0,0,0-2.33-.2h0a1.27,1.27,0,0,0,.35-.28.81.81,0,0,0,.17-.54A1.46,1.46,0,0,0,69.69,23.71Zm0-1.22a3.82,3.82,0,0,0,.82.88,2,2,0,0,0,1,.43,3.55,3.55,0,0,0-.88,0c-.11,0,.09.12.58.25l3.68.87a25.64,25.64,0,0,0-3-.56,9.35,9.35,0,0,0-2.33-.2h0a1.32,1.32,0,0,0,.35-.29.78.78,0,0,0,.17-.54A1.51,1.51,0,0,0,69.71,22.49Zm1.4-3.84a4,4,0,0,0,.82.88,2,2,0,0,0,1,.43A3.53,3.53,0,0,0,72,20c-.11,0,.08.12.58.25l3.67.87a25.36,25.36,0,0,0-3-.56,9.43,9.43,0,0,0-2.34-.2h0a1.28,1.28,0,0,0,.34-.29.73.73,0,0,0,.17-.54A1.44,1.44,0,0,0,71.11,18.65Zm1.51.26a4,4,0,0,0,.82.88,2,2,0,0,0,1,.43,2.92,2.92,0,0,0-.88,0c-.11,0,.08.11.58.24l3.67.88a23,23,0,0,0-3-.57,10,10,0,0,0-2.33-.2h0a1.43,1.43,0,0,0,.35-.28.81.81,0,0,0,.16-.54A1.44,1.44,0,0,0,72.62,18.91Zm0,1.22a4.23,4.23,0,0,0,.82.87,2,2,0,0,0,1,.43,2.92,2.92,0,0,0-.88,0c-.11,0,.08.12.58.24l3.67.88a23.4,23.4,0,0,0-3-.56,10.35,10.35,0,0,0-2.33-.21h0a1.43,1.43,0,0,0,.35-.28A.77.77,0,0,0,73,21,1.42,1.42,0,0,0,72.62,20.13Zm0,1.18a4,4,0,0,0,.82.88,2,2,0,0,0,1,.43,2.92,2.92,0,0,0-.88,0c-.11,0,.08.11.58.24l3.67.88a23,23,0,0,0-3-.57,10,10,0,0,0-2.33-.2h0a1.43,1.43,0,0,0,.35-.28.81.81,0,0,0,.16-.54A1.44,1.44,0,0,0,72.62,21.31Zm0,1.22a4.23,4.23,0,0,0,.82.87,2,2,0,0,0,1,.43,2.92,2.92,0,0,0-.88,0c-.11,0,.08.12.58.24l3.67.88a23.4,23.4,0,0,0-3-.56,10.35,10.35,0,0,0-2.33-.21h0a1.43,1.43,0,0,0,.35-.28.77.77,0,0,0,.16-.54A1.42,1.42,0,0,0,72.62,22.53Zm0,1.17a4,4,0,0,0,.82.88,2,2,0,0,0,1,.43,3.55,3.55,0,0,0-.88,0c-.11,0,.08.12.58.25l3.67.88a23,23,0,0,0-3-.57,9.39,9.39,0,0,0-2.33-.2h0a1.72,1.72,0,0,0,.35-.28.81.81,0,0,0,.16-.54A1.44,1.44,0,0,0,72.62,23.7Z" transform="translate(-8.15 -15.33)"/><path class="cls-1" d="M75.77,20.17a3.82,3.82,0,0,0,.82.88,1.92,1.92,0,0,0,1,.43,2.92,2.92,0,0,0-.88,0c-.11,0,.09.11.58.24l3.68.88a23.21,23.21,0,0,0-3-.57,9.94,9.94,0,0,0-2.33-.2h0a1.27,1.27,0,0,0,.35-.28.81.81,0,0,0,.17-.54A1.51,1.51,0,0,0,75.77,20.17Zm0,1.38a3.82,3.82,0,0,0,.82.88,2,2,0,0,0,1,.43,2.91,2.91,0,0,0-.88,0c-.11,0,.08.11.58.24l3.67.88a23.33,23.33,0,0,0-3-.57,10,10,0,0,0-2.34-.2h0a1.27,1.27,0,0,0,.35-.28.81.81,0,0,0,.17-.54A1.44,1.44,0,0,0,75.78,21.55Zm.16,1.32a3.82,3.82,0,0,0,.82.88,1.88,1.88,0,0,0,1,.43,2.92,2.92,0,0,0-.88,0c-.11,0,.09.11.58.24l3.67.88a23,23,0,0,0-3-.57,10,10,0,0,0-2.33-.2h0a1.27,1.27,0,0,0,.35-.28.81.81,0,0,0,.17-.54A1.51,1.51,0,0,0,75.94,22.87Zm.58-3.66a4,4,0,0,0,.82.88,2,2,0,0,0,1,.43,2.92,2.92,0,0,0-.88,0c-.11,0,.08.11.58.24l3.67.88a23,23,0,0,0-3-.57,10,10,0,0,0-2.33-.2h0a1.43,1.43,0,0,0,.35-.28.81.81,0,0,0,.17-.54A1.46,1.46,0,0,0,76.52,19.21Zm.94,4.44a3.82,3.82,0,0,0,.82.88,2,2,0,0,0,1,.43,3,3,0,0,0-.89,0c-.1,0,.09.11.59.24l3.67.88a23,23,0,0,0-3-.57,10,10,0,0,0-2.34-.2h0a1.14,1.14,0,0,0,.35-.28.81.81,0,0,0,.17-.54A1.44,1.44,0,0,0,77.46,23.65Zm.11-5.08a4,4,0,0,0,.82.87,1.92,1.92,0,0,0,1,.43,2.94,2.94,0,0,0-.88,0c-.11,0,.09.12.58.24l3.68.88a23.64,23.64,0,0,0-3-.56,10.29,10.29,0,0,0-2.33-.21h0a1.27,1.27,0,0,0,.35-.28.78.78,0,0,0,.17-.54A1.48,1.48,0,0,0,77.57,18.57Zm.1,2.78a4.09,4.09,0,0,0,.83.88,2,2,0,0,0,1,.43,3.55,3.55,0,0,0-.88,0c-.11,0,.09.12.58.25l3.67.87a24.94,24.94,0,0,0-3-.56,9.37,9.37,0,0,0-2.33-.2h0a1.32,1.32,0,0,0,.35-.29.78.78,0,0,0,.17-.54A1.47,1.47,0,0,0,77.67,21.35Zm1.12-.77a4,4,0,0,0,.82.88,2,2,0,0,0,1,.43,3.53,3.53,0,0,0-.88,0c-.11,0,.08.12.58.25L84,23a23,23,0,0,0-3-.57,9.43,9.43,0,0,0-2.34-.2h0A1.44,1.44,0,0,0,79,22a.76.76,0,0,0,.17-.54A1.44,1.44,0,0,0,78.79,20.58ZM79,23.15a3.82,3.82,0,0,0,.82.88,2,2,0,0,0,1,.43,3.55,3.55,0,0,0-.88,0c-.11,0,.09.12.59.25l3.67.87a25.8,25.8,0,0,0-3-.56,9.43,9.43,0,0,0-2.34-.2h0a1.32,1.32,0,0,0,.35-.29.78.78,0,0,0,.17-.54A1.51,1.51,0,0,0,79,23.15Zm.24-4a3.82,3.82,0,0,0,.82.88,2,2,0,0,0,1,.43,3.55,3.55,0,0,0-.88,0c-.11,0,.09.12.58.25l3.68.87a25.8,25.8,0,0,0-3-.56,9.43,9.43,0,0,0-2.34-.2h0a1.32,1.32,0,0,0,.35-.29.78.78,0,0,0,.17-.54A1.51,1.51,0,0,0,79.19,19.19Z" transform="translate(-8.15 -15.33)"/><path class="cls-1" d="M86.29,20.76a4,4,0,0,0,.82.88,2,2,0,0,0,1,.43,3.53,3.53,0,0,0-.88,0c-.11,0,.08.12.58.25l3.67.88a23,23,0,0,0-3-.57,9.43,9.43,0,0,0-2.34-.2h0a1.72,1.72,0,0,0,.35-.28.81.81,0,0,0,.16-.54A1.44,1.44,0,0,0,86.29,20.76Zm0,1.12a3.77,3.77,0,0,0,.82.87,1.93,1.93,0,0,0,1,.44,3.15,3.15,0,0,0-.89,0c-.1,0,.09.12.59.25l3.67.87a25.64,25.64,0,0,0-3-.56,10.29,10.29,0,0,0-2.33-.21h0a1.11,1.11,0,0,0,.35-.28.78.78,0,0,0,.17-.54A1.44,1.44,0,0,0,86.33,21.88ZM86.64,23a3.82,3.82,0,0,0,.82.88,2,2,0,0,0,1,.43,3.63,3.63,0,0,0-.89,0c-.1,0,.09.12.59.25l3.67.87a25.36,25.36,0,0,0-3-.56,9.43,9.43,0,0,0-2.34-.2h0a1.28,1.28,0,0,0,.34-.29A.73.73,0,0,0,87,23.8,1.44,1.44,0,0,0,86.64,23Zm.11-3.16a3.82,3.82,0,0,0,.82.88,1.91,1.91,0,0,0,1,.43,3,3,0,0,0-.89,0c-.11,0,.09.11.59.24l3.67.88a23.21,23.21,0,0,0-3-.57,9.94,9.94,0,0,0-2.33-.2h0a1.27,1.27,0,0,0,.35-.28.81.81,0,0,0,.17-.54A1.44,1.44,0,0,0,86.75,19.81Zm.88-.66a4.09,4.09,0,0,0,.83.88,1.88,1.88,0,0,0,1,.43,2.92,2.92,0,0,0-.88,0c-.11,0,.09.11.58.24l3.67.88a22.62,22.62,0,0,0-3-.57,10,10,0,0,0-2.33-.2h0a1.27,1.27,0,0,0,.35-.28A.81.81,0,0,0,88,20,1.46,1.46,0,0,0,87.63,19.15Zm.34,4.4a4.23,4.23,0,0,0,.82.87,2,2,0,0,0,1,.43,2.92,2.92,0,0,0-.88,0c-.11,0,.08.12.58.24l3.67.88a23.4,23.4,0,0,0-3-.56,10.35,10.35,0,0,0-2.33-.21h0a1.23,1.23,0,0,0,.34-.28.73.73,0,0,0,.17-.54A1.42,1.42,0,0,0,88,23.55Zm.93-4.64a3.82,3.82,0,0,0,.82.88,1.88,1.88,0,0,0,1,.43,2.92,2.92,0,0,0-.88,0c-.11,0,.09.11.58.24l3.67.88a22.62,22.62,0,0,0-3-.57,10,10,0,0,0-2.33-.2h0a1.27,1.27,0,0,0,.35-.28.81.81,0,0,0,.17-.54A1.51,1.51,0,0,0,88.9,18.91Zm.46,4.62a3.86,3.86,0,0,0,.83.88,1.88,1.88,0,0,0,1,.43,2.92,2.92,0,0,0-.88,0c-.11,0,.08.11.58.24l3.67.88a23,23,0,0,0-3-.57,10,10,0,0,0-2.33-.2h0a1.27,1.27,0,0,0,.35-.28.81.81,0,0,0,.17-.54A1.46,1.46,0,0,0,89.36,23.53Z" transform="translate(-8.15 -15.33)"/><path class="cls-1" d="M92.17,20.17a4,4,0,0,0,.82.88,2,2,0,0,0,1,.43,2.91,2.91,0,0,0-.88,0c-.11,0,.08.11.58.24l3.67.88a23,23,0,0,0-3-.57,10,10,0,0,0-2.34-.2h0a1.43,1.43,0,0,0,.35-.28.81.81,0,0,0,.16-.54A1.44,1.44,0,0,0,92.17,20.17Zm0,1.38a4.3,4.3,0,0,0,.82.88,2,2,0,0,0,1,.43,2.92,2.92,0,0,0-.88,0c-.11,0,.08.11.58.24l3.67.88a23,23,0,0,0-3-.57,10,10,0,0,0-2.33-.2h0a1.43,1.43,0,0,0,.35-.28.81.81,0,0,0,.16-.54A1.44,1.44,0,0,0,92.18,21.55Zm.16,1.32a3.82,3.82,0,0,0,.82.88,2,2,0,0,0,1,.43,2.91,2.91,0,0,0-.88,0c-.11,0,.08.11.58.24l3.67.88a23.33,23.33,0,0,0-3-.57,10,10,0,0,0-2.34-.2h0a1.4,1.4,0,0,0,.34-.28.76.76,0,0,0,.17-.54A1.44,1.44,0,0,0,92.34,22.87Zm.59-3.66a3.82,3.82,0,0,0,.82.88,1.92,1.92,0,0,0,1,.43,2.94,2.94,0,0,0-.88,0c-.11,0,.09.11.59.24l3.67.88a23.21,23.21,0,0,0-3-.57,9.94,9.94,0,0,0-2.33-.2h0a1.27,1.27,0,0,0,.35-.28.81.81,0,0,0,.17-.54A1.51,1.51,0,0,0,92.93,19.21Zm.93,4.44a4,4,0,0,0,.82.88,2,2,0,0,0,1,.43,2.92,2.92,0,0,0-.88,0c-.11,0,.08.11.58.24l3.67.88a23,23,0,0,0-3-.57,10,10,0,0,0-2.33-.2h0a1.27,1.27,0,0,0,.35-.28.81.81,0,0,0,.17-.54A1.46,1.46,0,0,0,93.86,23.65ZM94,18.57a4.23,4.23,0,0,0,.82.87,2,2,0,0,0,1,.43,2.92,2.92,0,0,0-.88,0c-.11,0,.08.12.58.24l3.67.88a23.4,23.4,0,0,0-3-.56,10.39,10.39,0,0,0-2.34-.21h0a1.23,1.23,0,0,0,.34-.28.73.73,0,0,0,.17-.54A1.42,1.42,0,0,0,94,18.57Zm.11,2.78a3.82,3.82,0,0,0,.82.88,2,2,0,0,0,1,.43,3.53,3.53,0,0,0-.88,0c-.11,0,.08.12.58.25l3.67.87a25.8,25.8,0,0,0-3-.56,9.43,9.43,0,0,0-2.34-.2h0a1.32,1.32,0,0,0,.35-.29.78.78,0,0,0,.17-.54A1.44,1.44,0,0,0,94.08,21.35Zm1.12-.77a3.82,3.82,0,0,0,.82.88,1.88,1.88,0,0,0,1,.43,3.55,3.55,0,0,0-.88,0c-.11,0,.09.12.58.25l3.67.88a23,23,0,0,0-3-.57,9.37,9.37,0,0,0-2.33-.2h0A1.48,1.48,0,0,0,95.4,22a.81.81,0,0,0,.17-.54A1.51,1.51,0,0,0,95.2,20.58Zm.15,2.57a4,4,0,0,0,.82.88,2,2,0,0,0,1,.43,3.55,3.55,0,0,0-.88,0c-.11,0,.08.12.58.25l3.67.87a25.36,25.36,0,0,0-3-.56,9.39,9.39,0,0,0-2.33-.2h0a1.28,1.28,0,0,0,.34-.29.73.73,0,0,0,.17-.54A1.44,1.44,0,0,0,95.35,23.15Zm.24-4a4,4,0,0,0,.82.88,2,2,0,0,0,1,.43,3.53,3.53,0,0,0-.88,0c-.11,0,.08.12.58.25l3.67.87a25.36,25.36,0,0,0-3-.56,9.43,9.43,0,0,0-2.34-.2h0a1.28,1.28,0,0,0,.34-.29A.73.73,0,0,0,96,20,1.44,1.44,0,0,0,95.59,19.19Z" transform="translate(-8.15 -15.33)"/><path class="cls-1" d="M98.53,18.83a4,4,0,0,0,.82.88,2,2,0,0,0,1,.43,3.53,3.53,0,0,0-.88,0c-.11,0,.08.12.58.25l3.67.87a25.36,25.36,0,0,0-3-.56,9.39,9.39,0,0,0-2.33-.2h0a1.28,1.28,0,0,0,.34-.29.73.73,0,0,0,.17-.54A1.44,1.44,0,0,0,98.53,18.83Zm0,1.19a4,4,0,0,0,.82.87,2,2,0,0,0,1,.44,3.07,3.07,0,0,0-.88,0c-.11,0,.08.12.58.25l3.67.87a25.36,25.36,0,0,0-3-.56,10.35,10.35,0,0,0-2.33-.21h0a1.08,1.08,0,0,0,.34-.28.73.73,0,0,0,.17-.54A1.44,1.44,0,0,0,98.53,20Zm0,1.19a4.23,4.23,0,0,0,.82.87,2,2,0,0,0,1,.43,2.91,2.91,0,0,0-.88,0c-.11,0,.08.12.58.24l3.67.88a23.4,23.4,0,0,0-3-.56,10.35,10.35,0,0,0-2.33-.21h0a1.23,1.23,0,0,0,.34-.28A.73.73,0,0,0,98.9,22,1.42,1.42,0,0,0,98.53,21.21Zm0,1.18a4,4,0,0,0,.82.88,2,2,0,0,0,1,.43,2.91,2.91,0,0,0-.88,0c-.11,0,.08.11.58.24l3.67.88a23,23,0,0,0-3-.57,10,10,0,0,0-2.33-.2h0a1.23,1.23,0,0,0,.34-.28.76.76,0,0,0,.17-.54A1.44,1.44,0,0,0,98.53,22.39Zm0,1.14a4,4,0,0,0,.82.88,2,2,0,0,0,1,.43,2.91,2.91,0,0,0-.88,0c-.11,0,.08.11.58.24l3.67.88a23,23,0,0,0-3-.57,10,10,0,0,0-2.33-.2h0a1.23,1.23,0,0,0,.34-.28.76.76,0,0,0,.17-.54A1.44,1.44,0,0,0,98.53,23.53ZM100,18.39a4,4,0,0,0,.83.87,1.88,1.88,0,0,0,1,.43,2.92,2.92,0,0,0-.88,0c-.11,0,.08.12.58.24l3.67.88a23.4,23.4,0,0,0-3-.56A10.35,10.35,0,0,0,99.89,20h0a1.43,1.43,0,0,0,.35-.28.78.78,0,0,0,.17-.54A1.44,1.44,0,0,0,100,18.39Zm1.75.27a4.09,4.09,0,0,0,.83.88,1.88,1.88,0,0,0,1,.43,3.55,3.55,0,0,0-.88,0c-.11,0,.09.12.58.25l3.68.88a23.58,23.58,0,0,0-3-.57,9.37,9.37,0,0,0-2.33-.2h0A1.48,1.48,0,0,0,102,20a.81.81,0,0,0,.17-.54A1.46,1.46,0,0,0,101.79,18.66Zm.29,1.32a4,4,0,0,0,.82.88,2,2,0,0,0,1,.43,3.55,3.55,0,0,0-.88,0c-.11,0,.08.12.58.25l3.67.88a23,23,0,0,0-3-.57,9.39,9.39,0,0,0-2.33-.2h0a1.72,1.72,0,0,0,.35-.28.81.81,0,0,0,.17-.54A1.46,1.46,0,0,0,102.08,20Zm0,1.21a4,4,0,0,0,.82.88,2,2,0,0,0,1,.43,2.92,2.92,0,0,0-.88,0c-.11,0,.08.11.58.24l3.67.88a23,23,0,0,0-3-.57,10,10,0,0,0-2.33-.2h0a1.43,1.43,0,0,0,.35-.28.81.81,0,0,0,.17-.54A1.46,1.46,0,0,0,102.08,21.19Zm0,1.22a4.23,4.23,0,0,0,.82.87,2,2,0,0,0,1,.43,2.92,2.92,0,0,0-.88,0c-.11,0,.08.12.58.24l3.67.88a23.4,23.4,0,0,0-3-.56,10.35,10.35,0,0,0-2.33-.21h0a1.43,1.43,0,0,0,.35-.28.78.78,0,0,0,.17-.54A1.44,1.44,0,0,0,102.08,22.41Zm0,1.18a4,4,0,0,0,.82.88,2,2,0,0,0,1,.43,2.92,2.92,0,0,0-.88,0c-.11,0,.08.11.58.24l3.67.88a23,23,0,0,0-3-.57,10,10,0,0,0-2.33-.2h0a1.43,1.43,0,0,0,.35-.28.81.81,0,0,0,.17-.54A1.46,1.46,0,0,0,102.08,23.59Z" transform="translate(-8.15 -15.33)"/><path class="cls-1" d="M105.33,18.91a4.09,4.09,0,0,0,.83.88,1.88,1.88,0,0,0,1,.43,2.92,2.92,0,0,0-.88,0c-.11,0,.09.11.58.24l3.68.88a23.58,23.58,0,0,0-3-.57,9.94,9.94,0,0,0-2.33-.2h0a1.27,1.27,0,0,0,.35-.28.81.81,0,0,0,.17-.54A1.46,1.46,0,0,0,105.33,18.91Zm1.36-2.36a4,4,0,0,0,.82.88,2,2,0,0,0,1,.43,3.55,3.55,0,0,0-.88,0c-.11,0,.08.12.58.25l3.67.87a25.36,25.36,0,0,0-3-.56,9.39,9.39,0,0,0-2.33-.2h0a1.28,1.28,0,0,0,.34-.29.73.73,0,0,0,.17-.54A1.44,1.44,0,0,0,106.69,16.55Zm0,1.16a3.82,3.82,0,0,0,.82.88,2,2,0,0,0,1,.43,2.94,2.94,0,0,0-.88,0c-.11,0,.09.11.58.24l3.68.88a23.33,23.33,0,0,0-3-.57,10,10,0,0,0-2.34-.2h0a1.27,1.27,0,0,0,.35-.28.81.81,0,0,0,.17-.54A1.51,1.51,0,0,0,106.73,17.71Zm.07,1.14a3.82,3.82,0,0,0,.82.88,2,2,0,0,0,1,.43,2.91,2.91,0,0,0-.88,0c-.11,0,.08.11.58.24l3.67.88a23.33,23.33,0,0,0-3-.57,10,10,0,0,0-2.34-.2h0a1.4,1.4,0,0,0,.34-.28.76.76,0,0,0,.17-.54A1.44,1.44,0,0,0,106.8,18.85Zm0,1.19a4,4,0,0,0,.82.88,2,2,0,0,0,1,.43,3.55,3.55,0,0,0-.88,0c-.11,0,.08.12.58.25l3.67.88a23,23,0,0,0-3-.57,9.39,9.39,0,0,0-2.33-.2h0a1.48,1.48,0,0,0,.35-.28.81.81,0,0,0,.17-.54A1.46,1.46,0,0,0,106.82,20Zm0,2.38a3.77,3.77,0,0,0,.82.87,2,2,0,0,0,1,.44,3.16,3.16,0,0,0-.89,0c-.1,0,.09.12.59.25l3.67.87a25.8,25.8,0,0,0-3-.56,10.39,10.39,0,0,0-2.34-.21h0a1.11,1.11,0,0,0,.35-.28.78.78,0,0,0,.17-.54A1.44,1.44,0,0,0,106.86,22.42Zm0,1.25a4,4,0,0,0,.82.87,2,2,0,0,0,1,.43,3,3,0,0,0-.89,0c-.1,0,.09.12.59.24l3.67.88a23.77,23.77,0,0,0-3-.56,10.39,10.39,0,0,0-2.34-.21h0a1.27,1.27,0,0,0,.35-.28.78.78,0,0,0,.17-.54A1.42,1.42,0,0,0,106.86,23.67Zm0-2.44a4.09,4.09,0,0,0,.83.88,2,2,0,0,0,1,.43,3.55,3.55,0,0,0-.88,0c-.11,0,.09.12.58.25l3.67.87a25.36,25.36,0,0,0-3-.56,9.39,9.39,0,0,0-2.33-.2h0a1.49,1.49,0,0,0,.35-.29.77.77,0,0,0,.16-.54A1.44,1.44,0,0,0,106.88,21.23Zm1.58,2.15a3.77,3.77,0,0,0,.82.87,1.94,1.94,0,0,0,1,.44,3.08,3.08,0,0,0-.88,0c-.11,0,.09.12.58.25l3.68.87a26.08,26.08,0,0,0-3-.56A10.29,10.29,0,0,0,108.3,25h0a1.11,1.11,0,0,0,.35-.28.78.78,0,0,0,.17-.54A1.51,1.51,0,0,0,108.46,23.38Zm.12-4.59a3.82,3.82,0,0,0,.82.88,1.92,1.92,0,0,0,1,.43,2.92,2.92,0,0,0-.88,0c-.11,0,.09.11.58.24l3.67.88a23,23,0,0,0-3-.57,9.94,9.94,0,0,0-2.33-.2h0a1.27,1.27,0,0,0,.35-.28.81.81,0,0,0,.17-.54A1.51,1.51,0,0,0,108.58,18.79Z" transform="translate(-8.15 -15.33)"/><path class="cls-1" d="M111.9,20.17a4,4,0,0,0,.82.88,2,2,0,0,0,1,.43,3,3,0,0,0-.89,0c-.1,0,.09.11.59.24l3.67.88a23.33,23.33,0,0,0-3-.57,10,10,0,0,0-2.34-.2h0a1.14,1.14,0,0,0,.35-.28.81.81,0,0,0,.17-.54A1.44,1.44,0,0,0,111.9,20.17Zm0,1.38a4,4,0,0,0,.82.88,2,2,0,0,0,1,.43,2.91,2.91,0,0,0-.88,0c-.11,0,.08.11.58.24l3.67.88a23,23,0,0,0-3-.57,10,10,0,0,0-2.34-.2h0a1.43,1.43,0,0,0,.35-.28.81.81,0,0,0,.16-.54A1.44,1.44,0,0,0,111.91,21.55Zm.16,1.32a3.82,3.82,0,0,0,.82.88,2,2,0,0,0,1,.43,2.94,2.94,0,0,0-.88,0c-.1,0,.09.11.58.24l3.68.88a23.33,23.33,0,0,0-3-.57,10,10,0,0,0-2.34-.2h0a1.27,1.27,0,0,0,.35-.28.81.81,0,0,0,.17-.54A1.51,1.51,0,0,0,112.07,22.87Zm.59-3.66a3.82,3.82,0,0,0,.82.88,1.92,1.92,0,0,0,1,.43,2.92,2.92,0,0,0-.88,0c-.11,0,.09.11.58.24l3.67.88a23,23,0,0,0-3-.57,9.94,9.94,0,0,0-2.33-.2h0a1.27,1.27,0,0,0,.35-.28.81.81,0,0,0,.17-.54A1.51,1.51,0,0,0,112.66,19.21Zm.93,4.44a4,4,0,0,0,.82.88,2,2,0,0,0,1,.43,2.91,2.91,0,0,0-.88,0c-.11,0,.08.11.58.24l3.67.88a23,23,0,0,0-3-.57,10,10,0,0,0-2.34-.2h0a1.23,1.23,0,0,0,.34-.28.76.76,0,0,0,.17-.54A1.44,1.44,0,0,0,113.59,23.65Zm.11-5.08a4.23,4.23,0,0,0,.82.87,2,2,0,0,0,1,.43,3,3,0,0,0-.89,0c-.1,0,.09.12.59.24l3.67.88a23.77,23.77,0,0,0-3-.56,10.39,10.39,0,0,0-2.34-.21h0a1.27,1.27,0,0,0,.35-.28.78.78,0,0,0,.17-.54A1.42,1.42,0,0,0,113.7,18.57Zm.11,2.78a3.82,3.82,0,0,0,.82.88,2,2,0,0,0,1,.43,3.56,3.56,0,0,0-.88,0c-.11,0,.09.12.58.25l3.68.87a25.8,25.8,0,0,0-3-.56,9.43,9.43,0,0,0-2.34-.2h0a1.32,1.32,0,0,0,.35-.29.78.78,0,0,0,.17-.54A1.51,1.51,0,0,0,113.81,21.35Zm1.11-.77a4.09,4.09,0,0,0,.83.88,1.88,1.88,0,0,0,1,.43,3.55,3.55,0,0,0-.88,0c-.11,0,.09.12.58.25l3.67.88a23,23,0,0,0-3-.57,9.39,9.39,0,0,0-2.33-.2h0a1.72,1.72,0,0,0,.35-.28.81.81,0,0,0,.16-.54A1.44,1.44,0,0,0,114.92,20.58Zm.16,2.57a3.82,3.82,0,0,0,.82.88,2,2,0,0,0,1,.43,3.53,3.53,0,0,0-.88,0c-.11,0,.08.12.58.25l3.67.87a25.8,25.8,0,0,0-3-.56,9.43,9.43,0,0,0-2.34-.2h0a1.32,1.32,0,0,0,.35-.29.78.78,0,0,0,.17-.54A1.44,1.44,0,0,0,115.08,23.15Zm.24-4a4,4,0,0,0,.82.88,2,2,0,0,0,1,.43,3.63,3.63,0,0,0-.89,0c-.1,0,.09.12.59.25l3.67.87a25.8,25.8,0,0,0-3-.56,9.43,9.43,0,0,0-2.34-.2h0a1.32,1.32,0,0,0,.35-.29.78.78,0,0,0,.17-.54A1.44,1.44,0,0,0,115.32,19.19Z" transform="translate(-8.15 -15.33)"/><path class="cls-1" d="M119.43,17.88a4.09,4.09,0,0,0,.83.88,1.88,1.88,0,0,0,1,.43,3.55,3.55,0,0,0-.88,0c-.11,0,.09.12.58.25l3.67.88a22.62,22.62,0,0,0-3-.57,9.37,9.37,0,0,0-2.33-.2h0a1.48,1.48,0,0,0,.35-.28.81.81,0,0,0,.17-.54A1.46,1.46,0,0,0,119.43,17.88Zm0,1.12a4,4,0,0,0,.83.87,1.9,1.9,0,0,0,1,.44,3.08,3.08,0,0,0-.88,0c-.11,0,.09.12.58.25l3.67.87a24.94,24.94,0,0,0-3-.56,10.32,10.32,0,0,0-2.33-.21h0a1.11,1.11,0,0,0,.35-.28.78.78,0,0,0,.17-.54A1.47,1.47,0,0,0,119.43,19Zm0,1.11a4.09,4.09,0,0,0,.83.88,1.88,1.88,0,0,0,1,.43,2.92,2.92,0,0,0-.88,0c-.11,0,.09.11.58.24l3.67.88a22.62,22.62,0,0,0-3-.57,10,10,0,0,0-2.33-.2h0a1.27,1.27,0,0,0,.35-.28.81.81,0,0,0,.17-.54A1.46,1.46,0,0,0,119.43,20.11Zm0,1.16a4,4,0,0,0,.82.87,2,2,0,0,0,1,.43,2.91,2.91,0,0,0-.88,0c-.11,0,.08.12.58.24l3.67.88a23.77,23.77,0,0,0-3-.56,10.39,10.39,0,0,0-2.34-.21h0a1.27,1.27,0,0,0,.35-.28.78.78,0,0,0,.17-.54A1.42,1.42,0,0,0,119.46,21.27Zm0,2.32a4,4,0,0,0,.82.88,2,2,0,0,0,1,.43,2.92,2.92,0,0,0-.88,0c-.11,0,.08.11.58.24l3.67.88a23,23,0,0,0-3-.57,10,10,0,0,0-2.33-.2h0a1.43,1.43,0,0,0,.35-.28.81.81,0,0,0,.16-.54A1.44,1.44,0,0,0,119.48,23.59Zm0-1.15a3.82,3.82,0,0,0,.82.88,1.92,1.92,0,0,0,1,.43,3.55,3.55,0,0,0-.88,0c-.11,0,.09.12.59.25l3.67.88a23.21,23.21,0,0,0-3-.57,9.35,9.35,0,0,0-2.33-.2h0a1.48,1.48,0,0,0,.35-.28.81.81,0,0,0,.17-.54A1.51,1.51,0,0,0,119.51,22.44Zm1-3a3.86,3.86,0,0,0,.83.88,2,2,0,0,0,1,.43,3.55,3.55,0,0,0-.88,0c-.11,0,.09.12.58.25l3.67.87a25.36,25.36,0,0,0-3-.56,9.39,9.39,0,0,0-2.33-.2h0a1.49,1.49,0,0,0,.35-.29.78.78,0,0,0,.17-.54A1.47,1.47,0,0,0,120.5,19.49Zm.57-.84a3.82,3.82,0,0,0,.82.88,2,2,0,0,0,1,.43,3.56,3.56,0,0,0-.88,0c-.1,0,.09.12.58.25l3.68.87a25.8,25.8,0,0,0-3-.56,9.43,9.43,0,0,0-2.34-.2h0a1.32,1.32,0,0,0,.35-.29.78.78,0,0,0,.17-.54A1.51,1.51,0,0,0,121.07,18.65Zm1-.25a3.77,3.77,0,0,0,.82.87,2,2,0,0,0,1,.44,3.08,3.08,0,0,0-.88,0c-.1,0,.09.12.58.25l3.68.87a25.8,25.8,0,0,0-3-.56,10.39,10.39,0,0,0-2.34-.21h0a1.11,1.11,0,0,0,.35-.28.78.78,0,0,0,.17-.54A1.51,1.51,0,0,0,122,18.4Z" transform="translate(-8.15 -15.33)"/><path class="cls-1" d="M125.59,18.1a4,4,0,0,0,.82.87,2,2,0,0,0,1,.44,3.07,3.07,0,0,0-.88,0c-.11,0,.08.12.58.25l3.67.87a25.36,25.36,0,0,0-3-.56,10.39,10.39,0,0,0-2.34-.21h0a1.08,1.08,0,0,0,.34-.28.73.73,0,0,0,.17-.54A1.44,1.44,0,0,0,125.59,18.1Zm.23-1.13a4,4,0,0,0,.82.88,2,2,0,0,0,1,.43,3.63,3.63,0,0,0-.89,0c-.1,0,.09.12.59.25l3.67.87a25.8,25.8,0,0,0-3-.56,9.43,9.43,0,0,0-2.34-.2h0a1.32,1.32,0,0,0,.35-.29.78.78,0,0,0,.17-.54A1.44,1.44,0,0,0,125.82,17Zm1-.84a3.82,3.82,0,0,0,.82.88,2,2,0,0,0,1,.43,3.55,3.55,0,0,0-.88,0c-.11,0,.09.12.58.25l3.67.87a24.94,24.94,0,0,0-3-.56,9.37,9.37,0,0,0-2.33-.2h0a1.32,1.32,0,0,0,.35-.29.78.78,0,0,0,.17-.54A1.51,1.51,0,0,0,126.82,16.13Zm.3,7.52a3.82,3.82,0,0,0,.82.88,1.92,1.92,0,0,0,1,.43,2.92,2.92,0,0,0-.88,0c-.11,0,.09.11.58.24l3.68.88a23.58,23.58,0,0,0-3-.57,9.94,9.94,0,0,0-2.33-.2h0a1.27,1.27,0,0,0,.35-.28.81.81,0,0,0,.17-.54A1.51,1.51,0,0,0,127.12,23.65Zm.42-1.75a3.82,3.82,0,0,0,.82.88,1.92,1.92,0,0,0,1,.43,3.55,3.55,0,0,0-.88,0c-.11,0,.09.12.58.25l3.68.88a23.58,23.58,0,0,0-3-.57,9.35,9.35,0,0,0-2.33-.2h0a1.48,1.48,0,0,0,.35-.28.81.81,0,0,0,.17-.54A1.51,1.51,0,0,0,127.54,21.9Zm0-1.15a3.86,3.86,0,0,0,.83.88,2,2,0,0,0,1,.43,3.55,3.55,0,0,0-.88,0c-.11,0,.09.12.58.25l3.67.87a25.36,25.36,0,0,0-3-.56,9.39,9.39,0,0,0-2.33-.2h0a1.49,1.49,0,0,0,.35-.29.78.78,0,0,0,.17-.54A1.47,1.47,0,0,0,127.58,20.75Zm.31,2.92a4.28,4.28,0,0,0,.83.87,1.88,1.88,0,0,0,1,.43,2.92,2.92,0,0,0-.88,0c-.11,0,.09.12.58.24l3.67.88a23,23,0,0,0-3-.56,10.32,10.32,0,0,0-2.33-.21h0a1.27,1.27,0,0,0,.35-.28.78.78,0,0,0,.17-.54A1.44,1.44,0,0,0,127.89,23.67Zm.14-7.54a3.82,3.82,0,0,0,.82.88,2,2,0,0,0,1,.43,3.62,3.62,0,0,0-.89,0c-.1,0,.09.12.58.25l3.68.87a25.8,25.8,0,0,0-3-.56,9.43,9.43,0,0,0-2.34-.2h0a1.32,1.32,0,0,0,.35-.29.78.78,0,0,0,.17-.54A1.51,1.51,0,0,0,128,16.13Zm.07,3.28a4,4,0,0,0,.82.87,2,2,0,0,0,1,.43,3,3,0,0,0-.89,0c-.1,0,.09.12.59.24l3.67.88a23.4,23.4,0,0,0-3-.56,10.39,10.39,0,0,0-2.34-.21h0a1.23,1.23,0,0,0,.34-.28.73.73,0,0,0,.17-.54A1.42,1.42,0,0,0,128.1,19.41Zm1-1.31a3.77,3.77,0,0,0,.82.87,1.94,1.94,0,0,0,1,.44,3.08,3.08,0,0,0-.88,0c-.11,0,.09.12.59.25l3.67.87a25.64,25.64,0,0,0-3-.56,10.29,10.29,0,0,0-2.33-.21h0a1.11,1.11,0,0,0,.35-.28.78.78,0,0,0,.17-.54A1.51,1.51,0,0,0,129.05,18.1Zm.06-1.13a3.82,3.82,0,0,0,.82.88,2,2,0,0,0,1,.43,3.56,3.56,0,0,0-.88,0c-.1,0,.09.12.58.25l3.68.87a25.8,25.8,0,0,0-3-.56,9.43,9.43,0,0,0-2.34-.2h0a1.32,1.32,0,0,0,.35-.29.78.78,0,0,0,.17-.54A1.51,1.51,0,0,0,129.11,17Z" transform="translate(-8.15 -15.33)"/></svg>