<svg id="Layer_1" data-name="Layer 1" xmlns="http://www.w3.org/2000/svg" xmlns:xlink="http://www.w3.org/1999/xlink" viewBox="0 0 1156.41 589.43"><defs><style>.cls-1,.cls-2,.cls-5{fill:none;}.cls-2{stroke:#ed1c24;stroke-width:0px;}.cls-2,.cls-5{stroke-miterlimit:10;}.cls-3{clip-path:url(#clip-path);}.cls-4{clip-path:url(#clip-path-2);}.cls-5{stroke:#bae5f4;stroke-width:1.97px;}</style><clipPath id="clip-path" transform="translate(-20 -353.29)"><rect class="cls-1" x="20" y="353.29" width="1156.41" height="589.43"/></clipPath><clipPath id="clip-path-2" transform="translate(-20 -353.29)"><rect class="cls-1" x="20" y="353.29" width="1156.41" height="589.43"/></clipPath></defs><path class="cls-2" d="M928.56,736c1.15-.78,1.84-1.3,1.84-1.3A3.09,3.09,0,0,0,928.56,736Z" transform="translate(-20 -353.29)"/><g id="Vector_Smart_Object" data-name="Vector Smart Object"><g class="cls-3"><g class="cls-4"><path class="cls-5" d="M61.52,485.27s40.86-43.26,66.1-64.9c0,0-7.21-18,0-33.65s22.83-18,31.25-13.22,13.22-19.23,19.23-19.23,36.05,3.61,61.29,10.82S324.72,412,333.14,438.4s7.21,42.07,34.85,40.86,27.64-15.62,43.27-2.4,24,31.25,33.65,28.84,28.84-13.22,38.46,21.64,61.29,54.08,61.29,54.08,18,13.22,16.83,32.45,8.41,50.48,20.43,21.63,19.23-52.88,25.24-72.11,34.85-40.86,21.63-56.48-34.85-50.48-44.47-50.48,33.66-6,34.86-19.23,30-27.64,30-27.64,12,49.27,31.25,43.26,55.29-42.06,55.29-42.06-13.22,10.81,20.43,9.61A293.49,293.49,0,0,0,816.28,412s-1.2,30.05,0,49.28,36.06,13.22,43.27,21.63S868,443.21,882.39,448s19.22,62.49,10.81,81.72,15.63,40.87,30,42.07,16.82,21.63,0,33.65S899.85,631.9,935,627.09s89.22-21.63,89.22-8.41S993,644.47,1017,647.2s115.38-18.91,116.58-15.3-9.61,64.9-27.64,75.72a194.7,194.7,0,0,1-67.3,24c-24,3.61-25.24,25.24-22.84,42.07s14.42,22.83,39.66,4.81,28.85,18,46.87,18S1151.6,805,1151.6,805s3.61,14.42,13.22,24,18,22.84,0,32.45-25.24,3.61-45.67,16.83-18,16.83-37.26,19.23-25.24-3.61-31.24,16.83-16.83,27.64-30.05,26.44-16.83-38.46-22.84-42.07l-6-3.6-2.4-28.85c-1.2-14.42,21.63-48.07,6-61.29s-21.63-19.23-32.45-31.25-33.65-10.82-33.65-10.82,13.22-10.82-1.2-28.84-21.64-30-44.47-30-74.52,12-85.34,15.62-26.44-18-39.66,0-7.21,46.88-7.21,46.88-28.84,4.8-45.67-3.61S682.88,793,661.24,793s-20.65-7.21-42.77-7.21-55.78-26.44-66.6-1.21-30,37.26-52.88,36.06-34.85-18-46.87,2.4-27.64,36.06-46.87,31.25,4.81-22.83-44.47-21.63-75.72-22.84-76.92,1.2,16.83,50.48-19.23,52.88-67.3,54.21-67.3,54.21-38.46-55.41-38.46-90.26S149.25,793,118,753.29s-57.69-86.54-75.71-127.4S17.05,534.55,23.06,514.12Z" transform="translate(-20 -353.29)"/></g></g></g></svg>